<?xml version="1.0" encoding="UTF-8" standalone="no"?>
<!-- Created with Inkscape (http://www.inkscape.org/) -->

<svg
   xmlns:dc="http://purl.org/dc/elements/1.1/"
   xmlns:cc="http://creativecommons.org/ns#"
   xmlns:rdf="http://www.w3.org/1999/02/22-rdf-syntax-ns#"
   xmlns:svg="http://www.w3.org/2000/svg"
   xmlns="http://www.w3.org/2000/svg"
   xmlns:sodipodi="http://sodipodi.sourceforge.net/DTD/sodipodi-0.dtd"
   xmlns:inkscape="http://www.inkscape.org/namespaces/inkscape"
   width="241.98149mm"
   height="216.19707mm"
   viewBox="0 0 241.98149 216.19707"
   version="1.1"
   id="svg8"
   sodipodi:docname="logo-dark.svg"
   inkscape:version="0.92.3 (2405546, 2018-03-11)"
   inkscape:export-filename="C:\Users\forwi\Documents\GitHub\tcc-mae-mobile\src\assets\logo\logo-inverted.png"
   inkscape:export-xdpi="96"
   inkscape:export-ydpi="96">
  <defs
     id="defs2" />
  <sodipodi:namedview
     id="base"
     pagecolor="#ffffff"
     bordercolor="#666666"
     borderopacity="1.0"
     inkscape:pageopacity="0.0"
     inkscape:pageshadow="2"
     inkscape:zoom="0.35355339"
     inkscape:cx="413.53751"
     inkscape:cy="444.1909"
     inkscape:document-units="mm"
     inkscape:current-layer="layer1"
     showgrid="false"
     inkscape:lockguides="true"
     inkscape:window-width="1366"
     inkscape:window-height="705"
     inkscape:window-x="-8"
     inkscape:window-y="-8"
     inkscape:window-maximized="1"
     fit-margin-top="0"
     fit-margin-left="0"
     fit-margin-right="0"
     fit-margin-bottom="0" />
  <metadata
     id="metadata5">
    <rdf:RDF>
      <cc:Work
         rdf:about="">
        <dc:format>image/svg+xml</dc:format>
        <dc:type
           rdf:resource="http://purl.org/dc/dcmitype/StillImage" />
        <dc:title></dc:title>
      </cc:Work>
    </rdf:RDF>
  </metadata>
  <g
     inkscape:label="Camada 1"
     inkscape:groupmode="layer"
     id="layer1"
     transform="translate(-55.155645,-28.9212)">
    <rect
       style="fill:#d80000;fill-opacity:1;stroke:none;stroke-width:2.89332056;stroke-miterlimit:4;stroke-dasharray:none;stroke-opacity:1"
       id="rect4755"
       width="167.42421"
       height="167.40263"
       x="-268.11313"
       y="142.34581"
       ry="83.701317"
       transform="matrix(0.25148836,-0.96786032,0.98325959,-0.18221026,0,0)"
       rx="7.5860877" />
    <path
       inkscape:connector-curvature="0"
       id="path4759"
       style="font-style:normal;font-variant:normal;font-weight:normal;font-stretch:normal;font-size:22.57777786px;line-height:1.25;font-family:'Eras Demi ITC';-inkscape-font-specification:'Eras Demi ITC';letter-spacing:0px;word-spacing:0px;fill:#d80000;fill-opacity:1;stroke:none;stroke-width:1.11679065"
       d="m 75.834866,164.11217 1.210094,-10.51435 3.071783,-36.93983 1.070472,-16.05068 q 6.655534,0.093 9.727316,0.093 2.466736,0 8.982644,-0.093 0.744675,3.76841 1.117015,5.35022 0.37231,1.58181 1.44281,5.07109 1.07046,3.48927 2.74598,8.46731 2.46674,7.53684 4.42151,14.88758 l 3.53721,13.30579 6.23665,-17.0742 9.07573,-22.19181 q 0.46542,-1.11657 0.93084,-2.5588 0.51197,-1.48877 1.67552,-5.25718 5.53852,0.093 9.86695,0.093 2.88561,0 9.21535,-0.093 -0.6516,13.39883 -0.97738,29.63559 -0.3258,16.19026 -0.3258,24.19234 0,3.86147 0.0931,9.67693 -4.60767,-0.093 -6.28319,-0.093 -2.42019,0 -6.42282,0.093 0.27927,-4.74542 0.37232,-7.81599 l 0.79123,-27.6816 q 0.13959,-5.86199 0.13959,-11.53788 l -0.0466,-3.76842 -17.17406,45.26756 -2.00132,5.53633 q -4.5146,-0.093 -6.19012,-0.093 -2.09439,0 -6.56245,0.093 l -8.005231,-28.6586 q -0.418886,-1.53529 -1.954772,-6.42028 l -2.885616,-9.49083 q -0.418886,-1.34919 -0.65159,-2.18662 -0.186183,-0.88394 -0.884303,-3.86147 l -0.605048,5.95504 q -0.232712,2.83795 -0.698135,9.49084 l -1.815148,28.84469 q -0.09307,2.1401 -0.139603,6.32723 l -6.003945,-0.093 q -1.535891,0 -6.097029,0.093 z" />
    <path
       style="font-style:normal;font-variant:normal;font-weight:normal;font-stretch:normal;font-size:22.57777786px;line-height:1.25;font-family:'Eras Demi ITC';-inkscape-font-specification:'Eras Demi ITC';letter-spacing:0px;word-spacing:0px;fill:#000000;fill-opacity:1;stroke:none;stroke-width:1.11679065"
       d="m 103.50456,114.35754 -5.678219,22.03421 c 4.361179,14.33624 3.556019,12.70581 7.749679,27.72116 2.97871,-0.0622 5.16618,-0.0938 6.56245,-0.0938 1.11701,0 3.17965,0.0316 6.18939,0.0938 l 2.00276,-5.53707 17.17408,-45.26682 0.0458,3.76841 c 0,3.78393 -0.0466,7.62843 -0.13959,11.53643 l -0.79195,27.68306 c -0.0619,2.04705 -0.18471,4.65238 -0.37088,7.81599 2.66841,-0.0622 4.80935,-0.0938 6.42281,-0.0938 1.11702,0 3.21142,0.0316 6.2832,0.0938 -0.0622,-3.87698 -0.0938,-7.10409 -0.0938,-9.6784 0,-5.33472 0.10797,-13.3981 0.32509,-24.19161 0.21719,-10.8245 0.54298,-20.70231 0.97738,-29.63486 -4.21983,0.0621 -7.29162,0.0915 -9.21535,0.0915 -2.88563,0 -6.17315,-0.0295 -9.86549,-0.0915 -0.77571,2.51228 -1.33422,4.26322 -1.67552,5.25572 -0.31029,0.96149 -0.62129,1.81588 -0.93157,2.56026 l -9.07574,22.19182 -6.23737,17.07346 -3.53649,-13.30505 c -1.30317,-4.90049 -2.71221,-9.88565 -4.42222,-14.88832 -0.43247,-1.26518 -1.22754,-3.70573 -1.69843,-5.13839 z"
       id="path4759-3"
       inkscape:connector-curvature="0"
       sodipodi:nodetypes="cccscccccccscsccsccccccsc" />
    <path
       inkscape:connector-curvature="0"
       id="path4761"
       style="font-style:normal;font-variant:normal;font-weight:normal;font-stretch:normal;font-size:22.57777786px;line-height:1.25;font-family:'Eras Demi ITC';-inkscape-font-specification:'Eras Demi ITC';letter-spacing:0px;word-spacing:0px;fill:#000000;fill-opacity:1;stroke:none;stroke-width:1.11679065"
       d="m 168.68934,134.25064 q 0.6516,-3.34969 0.79121,-4.69889 0.1862,-1.34918 0.60505,-4.09409 6.32973,-1.48875 11.17013,-2.09356 4.8404,-0.60481 9.35498,-0.60481 5.11964,0 9.40153,1.20962 4.28188,1.16309 6.70208,3.76842 2.42019,2.60533 2.42019,7.49031 0,2.65186 -0.74468,13.5384 -0.74467,10.84002 -0.88431,22.42444 -3.53722,-0.093 -6.51591,-0.093 -2.83906,0 -6.65552,0.093 0.60505,-5.62937 0.97738,-13.02664 l 0.60505,-11.58441 q -1.7686,1.16309 -2.69945,1.62833 -0.93086,0.46524 -2.09438,0.88396 -1.16358,0.37216 -4.09573,1.20961 -2.93215,0.7909 -4.70076,1.39571 -1.76861,0.60481 -3.2114,1.39571 -1.39626,0.74438 -2.37366,1.72138 -0.97738,0.93048 -1.44282,2.00053 -0.41887,1.0235 -0.41887,2.23314 0,1.95397 1.117,3.39621 1.16356,1.39572 2.88562,1.954 1.72207,0.55828 4.04918,0.55828 1.48934,0 3.11832,-0.23261 1.67552,-0.23263 4.46806,-1.1631 -0.97739,2.65186 -2.28058,7.90902 -3.30449,0.5583 -5.25927,0.69787 -1.95477,0.13953 -3.63028,0.13953 -5.86431,0 -9.63424,-1.58181 -3.76991,-1.58179 -5.58506,-5.02455 -1.76859,-3.44275 -1.76859,-6.93204 0,-2.00052 0.69812,-3.95452 0.69814,-1.95398 2.04786,-3.58232 1.34972,-1.62833 3.49066,-3.11709 2.14094,-1.53528 6.19012,-2.93099 4.04916,-1.44224 10.70469,-2.88447 1.76861,-0.37217 3.67685,-0.88395 1.90823,-0.55828 3.02523,-1.07004 1.16356,-0.51177 2.00132,-1.30267 0.83774,-0.83743 1.21008,-1.72138 0.41891,-0.88395 0.41891,-1.81442 0,-1.81442 -1.21013,-3.07056 -1.16355,-1.25614 -3.07176,-1.72138 -1.8617,-0.51177 -4.14226,-0.51177 -8.47068,0 -18.70996,4.04757 z" />
    <path
       inkscape:connector-curvature="0"
       id="path4763-7"
       style="font-style:normal;font-variant:normal;font-weight:normal;font-stretch:normal;font-size:22.57777786px;line-height:1.25;font-family:'Eras Demi ITC';-inkscape-font-specification:'Eras Demi ITC';letter-spacing:0px;word-spacing:0px;fill:#d80000;fill-opacity:1;stroke:none;stroke-width:1.11679065"
       d="m 223.35511,164.1807 1.34971,-17.81858 0.97737,-20.60999 0.60508,-18.74907 v -6.32723 q 11.4959,0.093 23.96924,0.093 l 8.93609,-0.0465 13.45068,-0.0466 -0.55855,10.04913 -4.42151,-0.23262 q -1.81507,-0.093 -5.02651,-0.13954 -3.21139,-0.0466 -6.56243,-0.0466 -7.2606,0 -9.40152,0.0466 -2.09443,0 -6.37629,0.13954 l -0.74466,16.51592 q 6.37628,0.13954 12.84564,0.13954 4.46804,0 15.07964,-0.27916 -0.37238,4.23366 -0.65159,10.14217 -12.42674,-0.13954 -14.24191,-0.13954 -5.49195,0 -13.68338,0.27915 l -0.74467,17.39988 5.11962,0.0466 q 2.23403,0 10.23929,-0.093 l 10.09965,-0.1861 6.74858,-0.32566 q -0.46541,5.39675 -0.65159,10.18869 -12.10091,-0.093 -21.82823,-0.093 l -15.31241,0.0466 z" />
    <path
       style="font-style:normal;font-variant:normal;font-weight:normal;font-stretch:normal;font-size:22.57777786px;line-height:1.25;font-family:'Eras Demi ITC';-inkscape-font-specification:'Eras Demi ITC';letter-spacing:0px;word-spacing:0px;fill:#000000;fill-opacity:1;stroke:none;stroke-width:1.11679065"
       d="m 226.28782,100.67666 v 6.32649 l -0.60434,18.74834 -0.97737,20.61071 -1.34429,17.81932 9.21536,-0.0481 14.6935,-0.05 c 0.82675,-3.18345 1.68166,-6.4008 2.48031,-9.53762 -2.39748,0.0238 -5.50901,0.0304 -6.43122,0.0266 l -5.1574,-0.021 0.74395,-17.40059 c 5.46098,-0.18611 10.01592,-0.27916 13.67724,-0.27916 0.22811,0 1.2688,0.005 1.74853,0.009 0.76147,-3.49772 1.85675,-7.13304 2.54313,-9.77418 v 0 c -1.80763,0.0287 -3.3043,0.0409 -4.47705,0.0409 -4.31289,0 -8.59478,-0.0466 -12.84564,-0.13954 l 0.74394,-16.5152 c 2.85459,-0.093 4.98074,-0.13954 6.37701,-0.13954 0.77311,-0.0168 12.77847,-0.008 14.55295,-0.0153 1.12355,-3.7814 1.86771,-7.18108 2.50667,-9.62724 -4.0959,-0.14863 -32.15816,0.008 -37.44507,-0.0333 z"
       id="path4763"
       inkscape:connector-curvature="0"
       sodipodi:nodetypes="ccccccccsccscccsccccccc" />
  </g>
</svg>
