<?xml version="1.0" encoding="UTF-8" standalone="no"?>
<!-- Created with Inkscape (http://www.inkscape.org/) -->

<svg
   xmlns:dc="http://purl.org/dc/elements/1.1/"
   xmlns:cc="http://creativecommons.org/ns#"
   xmlns:rdf="http://www.w3.org/1999/02/22-rdf-syntax-ns#"
   xmlns:svg="http://www.w3.org/2000/svg"
   xmlns="http://www.w3.org/2000/svg"
   xmlns:sodipodi="http://sodipodi.sourceforge.net/DTD/sodipodi-0.dtd"
   xmlns:inkscape="http://www.inkscape.org/namespaces/inkscape"
   width="241.98149mm"
   height="216.19707mm"
   viewBox="0 0 241.98149 216.19707"
   version="1.1"
   id="svg8"
   sodipodi:docname="logo.svg"
   inkscape:version="0.92.3 (2405546, 2018-03-11)"
   inkscape:export-filename="C:\Users\forwi\Documents\GitHub\MaE-Mobile-TCC\assets\images\logo\logo.png"
   inkscape:export-xdpi="96"
   inkscape:export-ydpi="96">
  <defs
     id="defs2" />
  <sodipodi:namedview
     id="base"
     pagecolor="#ffffff"
     bordercolor="#666666"
     borderopacity="1.0"
     inkscape:pageopacity="0.0"
     inkscape:pageshadow="2"
     inkscape:zoom="0.5"
     inkscape:cx="327.15143"
     inkscape:cy="416.39487"
     inkscape:document-units="mm"
     inkscape:current-layer="layer1"
     showgrid="false"
     inkscape:lockguides="true"
     inkscape:window-width="1366"
     inkscape:window-height="705"
     inkscape:window-x="120"
     inkscape:window-y="-8"
     inkscape:window-maximized="1"
     fit-margin-top="0"
     fit-margin-left="0"
     fit-margin-right="0"
     fit-margin-bottom="0" />
  <metadata
     id="metadata5">
    <rdf:RDF>
      <cc:Work
         rdf:about="">
        <dc:format>image/svg+xml</dc:format>
        <dc:type
           rdf:resource="http://purl.org/dc/dcmitype/StillImage" />
        <dc:title />
      </cc:Work>
    </rdf:RDF>
  </metadata>
  <g
     inkscape:label="Camada 1"
     inkscape:groupmode="layer"
     id="layer1"
     transform="translate(-55.155645,-28.9212)">
    <path
       style="fill:#d80000;fill-opacity:1;stroke:none;stroke-width:2.75372696;stroke-miterlimit:4;stroke-dasharray:none;stroke-opacity:1"
       d="m 272.18684,46.66637 c -12.61882,-0.0049 -40.35851,3.525529 -73.12939,9.598379 -45.59426,8.449189 -83.15085,18.525834 -84.20778,22.593454 l -9.22424,35.500677 c 0.50276,1.55959 1.06267,3.26003 1.69447,5.13715 1.6445,5.02456 3.11826,9.98697 4.42144,14.88747 l 3.53725,13.30564 6.23631,-17.07389 9.07593,-22.19193 c 0.31028,-0.74438 0.62042,-1.59753 0.93069,-2.55901 0.34132,-0.99252 0.89965,-2.74477 1.67535,-5.25705 3.69235,0.062 6.98148,0.093 9.8671,0.093 1.92374,0 4.99563,-0.031 9.21546,-0.093 -0.4344,8.93255 -0.76001,18.8109 -0.9772,29.6354 -0.2172,10.79351 -0.32608,18.8576 -0.32608,24.19232 0,2.57432 0.031,5.79996 0.093,9.67693 -3.07178,-0.062 -5.16581,-0.0925 -6.28282,-0.0925 -1.61346,0 -3.75444,0.0305 -6.42286,0.0925 0.18617,-3.16361 0.31003,-5.76849 0.37207,-7.81554 l 0.79116,-27.68203 c 0.0931,-3.90799 0.13953,-7.75387 0.13953,-11.5378 l -0.0465,-3.76824 -17.17415,45.26752 -2.00091,5.53609 c -3.00973,-0.062 -5.0733,-0.0925 -6.19032,-0.0925 -1.39626,0 -3.58368,0.0305 -6.56239,0.0925 l -7.768516,-27.81018 -23.363431,89.91544 c -1.056928,4.06762 34.798237,0.5401 80.392507,-7.90908 45.59427,-8.44919 83.15085,-18.52584 84.20778,-22.59346 l 8.21759,-31.62494 -14.69058,0.0444 -9.21546,0.0465 1.34979,-17.81855 0.9772,-20.61011 0.60513,-18.74873 v -6.32726 c 7.66394,0.062 15.65352,0.093 23.96908,0.093 l 8.93641,-0.0465 4.5377,-0.016 13.60279,-52.350808 c 0.29726,-1.144017 -2.32532,-1.687368 -7.26312,-1.689302 z m -6.33967,54.04011 -2.50268,9.63094 c 0.46889,0.005 0.94418,0.009 1.4087,0.0155 2.14095,0.031 3.81651,0.0775 5.02656,0.13953 l 4.42144,0.23254 0.55862,-10.04951 z m -2.50268,9.63094 c -1.69223,-0.019 -3.40438,-0.0315 -5.1537,-0.0315 -4.84039,0 -7.97421,0.016 -9.40149,0.047 -1.39628,0 -3.52178,0.0465 -6.37635,0.13953 l -0.74466,16.51579 c 4.25085,0.093 8.53282,0.13952 12.84573,0.13952 1.15297,0 2.70804,-0.0181 4.47466,-0.046 z m -4.35581,16.76435 -2.54196,9.78286 c 2.08601,0.0146 5.83001,0.0513 12.49536,0.12609 0.18614,-3.939 0.40338,-7.31957 0.65164,-10.14201 -4.33609,0.11407 -7.80763,0.18891 -10.60504,0.23306 z m -2.54196,9.78286 c -0.50674,-0.004 -1.51016,-0.0134 -1.74667,-0.0134 -3.6613,0 -8.22245,0.093 -13.6834,0.27905 l -0.74466,17.39997 5.11959,0.0465 c 1.06116,0 3.45192,-0.0212 6.46627,-0.0527 z m -4.58887,17.65939 -2.47995,9.54567 0.62166,-0.002 c 6.48488,0 13.76086,0.031 21.82813,0.093 0.12412,-3.19462 0.34136,-6.59069 0.65164,-10.18852 l -6.74843,0.32556 -10.09964,0.18603 c -1.53436,0.0178 -2.55708,0.0276 -3.77341,0.0403 z M 99.923454,136.30173 105.62543,114.35888 c -0.3861,-1.19772 -0.74162,-2.31958 -1.05161,-3.33003 -0.71367,-2.32618 -1.1946,-4.01699 -1.44281,-5.07153 -0.24823,-1.05454 -0.62079,-2.83778 -1.11724,-5.35006 -4.343942,0.062 -7.337911,0.093 -8.982402,0.093 -2.047854,0 -5.290548,-0.031 -9.727571,-0.093 l -1.070219,16.0507 -3.072163,36.93987 -1.209746,10.51408 c 3.040759,-0.062 5.072859,-0.0925 6.096785,-0.0925 l 6.003769,0.0925 c 0.03102,-2.79142 0.078,-4.90001 0.140044,-6.32674 l 1.814875,-28.84475 c 0.310282,-4.43526 0.543007,-7.59893 0.698148,-9.4909 l 0.605131,-5.95519 c 0.465413,1.98502 0.760063,3.27197 0.884185,3.86126 0.155136,0.55829 0.372382,1.28749 0.651639,2.18695 l 2.885612,9.49089 c 1.023925,3.25666 1.675662,5.39676 1.954919,6.42028 z M 192.72761,122.7594 c 3.41309,0 6.5469,0.40333 9.40149,1.20974 2.85459,0.7754 5.08845,2.03136 6.70192,3.76825 1.61346,1.73689 2.42001,4.23384 2.42001,7.4905 0,1.7679 -0.24821,6.2805 -0.74466,13.53819 -0.49645,7.22668 -0.79109,14.70152 -0.88419,22.42447 -2.35814,-0.062 -4.53009,-0.093 -6.51588,-0.093 -1.8927,0 -4.1111,0.031 -6.6554,0.093 0.40336,-3.75291 0.72898,-8.09508 0.9772,-13.0266 l 0.60513,-11.5843 c -1.17907,0.77539 -2.07901,1.31816 -2.69958,1.62833 -0.62057,0.31015 -1.31877,0.60452 -2.09445,0.88366 -0.77571,0.24811 -2.14059,0.65145 -4.09535,1.20975 -1.95477,0.52726 -3.52193,0.99257 -4.70101,1.39578 -1.17907,0.4032 -2.24931,0.86851 -3.21117,1.39578 -0.93084,0.49625 -1.72242,1.07 -2.37402,1.72134 -0.65158,0.62032 -1.13251,1.28703 -1.4428,2.00039 -0.27925,0.68234 -0.41858,1.42651 -0.41858,2.23294 0,1.30265 0.37206,2.43468 1.11673,3.39618 0.7757,0.93048 1.73757,1.58221 2.88561,1.9544 1.14805,0.37219 2.49796,0.55811 4.04936,0.55811 0.9929,0 2.03217,-0.0775 3.11816,-0.23255 1.11701,-0.15508 2.60625,-0.54292 4.46794,-1.16323 -0.65159,1.7679 -1.41169,4.40431 -2.28048,7.90907 -2.20299,0.3722 -3.95592,0.60459 -5.25911,0.69763 -1.30318,0.093 -2.51326,0.13953 -3.63027,0.13953 -3.90954,0 -7.12075,-0.52728 -9.63403,-1.58181 -2.51328,-1.05453 -4.37509,-2.72933 -5.58519,-5.0245 -1.17906,-2.29517 -1.76889,-4.60569 -1.76889,-6.93188 0,-1.33368 0.23274,-2.65161 0.69815,-3.95428 0.46543,-1.30265 1.14812,-2.49717 2.04794,-3.58273 0.89981,-1.08555 2.06345,-2.12461 3.49074,-3.11712 1.4273,-1.02352 3.49087,-2.0001 6.19032,-2.93057 2.69944,-0.96149 6.26724,-1.92309 10.70426,-2.88458 1.17907,-0.24811 2.40513,-0.543 3.67729,-0.88418 1.27215,-0.37219 2.28047,-0.72853 3.02514,-1.0697 0.77571,-0.34118 1.44292,-0.7755 2.00143,-1.30277 0.55849,-0.55828 0.96152,-1.13204 1.20974,-1.72134 0.27928,-0.5893 0.4191,-1.19405 0.4191,-1.81436 0,-1.20961 -0.40351,-2.23319 -1.21026,-3.07061 -0.7757,-0.83743 -1.79951,-1.41118 -3.07165,-1.72135 -1.24113,-0.34118 -2.62201,-0.51211 -4.14238,-0.51211 -5.64712,0 -11.88378,1.34944 -18.70997,4.04782 0.4344,-2.23313 0.69809,-3.79947 0.79116,-4.69894 0.12414,-0.89945 0.3259,-2.26438 0.60514,-4.09432 4.21982,-0.9925 7.94344,-1.69021 11.17037,-2.09342 3.22694,-0.4032 6.34527,-0.60461 9.35499,-0.60461 z"
       id="rect4755"
       inkscape:connector-curvature="0" />
  </g>
</svg>
